<svg width="1200" height="780" viewBox="0 0 1200 780" xmlns="http://www.w3.org/2000/svg" role="img" aria-label="About StudyHub illustration">
  <defs>
    <linearGradient id="bg" x1="0" y1="0" x2="1" y2="1">
      <stop offset="0%" stop-color="#eaf5ff"/>
      <stop offset="100%" stop-color="#f4fff8"/>
    </linearGradient>
    <linearGradient id="card" x1="0" y1="0" x2="1" y2="1">
      <stop offset="0%" stop-color="#0f8f7e"/>
      <stop offset="100%" stop-color="#1b5e93"/>
    </linearGradient>
  </defs>
  <rect width="1200" height="780" fill="url(#bg)"/>
  <circle cx="1020" cy="120" r="160" fill="#d4f3ec"/>
  <circle cx="180" cy="640" r="200" fill="#dbeafe"/>
  <rect x="100" y="120" width="1000" height="540" rx="36" fill="#ffffff" stroke="#d4e3f2" stroke-width="4"/>
  <rect x="150" y="180" width="420" height="410" rx="24" fill="url(#card)"/>
  <rect x="190" y="230" width="340" height="22" rx="11" fill="#ffffff" opacity="0.95"/>
  <rect x="190" y="276" width="280" height="16" rx="8" fill="#c8efe8"/>
  <rect x="190" y="312" width="250" height="16" rx="8" fill="#c8efe8"/>
  <rect x="190" y="348" width="300" height="16" rx="8" fill="#c8efe8"/>
  <rect x="190" y="410" width="210" height="96" rx="16" fill="#ffffff" opacity="0.92"/>
  <rect x="440" y="410" width="90" height="96" rx="16" fill="#e1fbf6"/>
  <rect x="620" y="190" width="430" height="56" rx="14" fill="#e9f3ff"/>
  <rect x="620" y="270" width="430" height="28" rx="14" fill="#f4f8ff"/>
  <rect x="620" y="314" width="410" height="28" rx="14" fill="#f4f8ff"/>
  <rect x="620" y="358" width="390" height="28" rx="14" fill="#f4f8ff"/>
  <rect x="620" y="430" width="180" height="120" rx="18" fill="#0f8f7e" opacity="0.14"/>
  <rect x="820" y="430" width="230" height="120" rx="18" fill="#1b5e93" opacity="0.12"/>
</svg>
