<svg width="1200" height="700" viewBox="0 0 1200 700" xmlns="http://www.w3.org/2000/svg" role="img" aria-label="Blog learning card 4">
  <rect width="1200" height="700" fill="#ecf5ff"/>
  <rect x="110" y="90" width="980" height="520" rx="30" fill="#ffffff" stroke="#d3e3f1" stroke-width="4"/>
  <rect x="170" y="140" width="360" height="420" rx="24" fill="#0f8f7e"/>
  <rect x="220" y="190" width="260" height="16" rx="8" fill="#dff6f2"/>
  <rect x="220" y="222" width="230" height="16" rx="8" fill="#dff6f2"/>
  <rect x="220" y="254" width="240" height="16" rx="8" fill="#dff6f2"/>
  <path d="M250 470 L330 390 L390 440 L450 320" stroke="#ffffff" stroke-width="12" fill="none" stroke-linecap="round"/>
  <circle cx="450" cy="320" r="16" fill="#ffffff"/>
  <rect x="580" y="160" width="440" height="26" rx="13" fill="#19466c"/>
  <rect x="580" y="212" width="390" height="14" rx="7" fill="#8a9eb7"/>
  <rect x="580" y="244" width="420" height="14" rx="7" fill="#8a9eb7"/>
  <rect x="580" y="276" width="340" height="14" rx="7" fill="#8a9eb7"/>
  <rect x="580" y="330" width="200" height="200" rx="18" fill="#e6f7f4"/>
  <rect x="800" y="330" width="220" height="200" rx="18" fill="#e8f1ff"/>
</svg>
